<svg height="14" viewBox="0 0 22 14" width="22" xmlns="http://www.w3.org/2000/svg"><path d="M18.65 5.97c-.4-.36-.92-.54-1.52-.54-.65 0-1.17.2-1.53.57-.36.38-.59.9-.68 1.54h4.42a2.17 2.17 0 0 0-.69-1.57zm3.26 1.32c.07.46.1 1.13.09 2h-7.14c.03 1 .38 1.7 1.02 2.1.39.26.86.39 1.42.39.58 0 1.05-.15 1.42-.46.2-.17.38-.4.53-.7h2.62c-.08.6-.39 1.2-.96 1.82a4.72 4.72 0 0 1-3.68 1.46c-1.3 0-2.47-.4-3.46-1.23-1-.82-1.5-2.16-1.5-4 0-1.75.45-3.09 1.35-4.01a4.66 4.66 0 0 1 3.5-1.4c.86 0 1.63.17 2.32.48s1.25.8 1.68 1.48c.4.6.67 1.3.8 2.07zM8.34 9.57c0-.73-.3-1.23-.87-1.5a3.3 3.3 0 0 0-1.38-.24H3.16v3.73h2.89c.6 0 1.05-.08 1.39-.24.6-.3.9-.9.9-1.75zM3.16 5.52h2.9c.59 0 1.07-.12 1.44-.35s.56-.64.56-1.23c0-.65-.25-1.08-.74-1.3a5.1 5.1 0 0 0-1.62-.21H3.16zm7.53 2.2c.35.57.53 1.25.53 2.05a4.16 4.16 0 0 1-1.58 3.34c-.43.34-.95.57-1.54.7-.6.13-1.24.19-1.94.19H0V0h6.6c1.68.03 2.86.52 3.55 1.5.42.58.63 1.3.63 2.13 0 .85-.2 1.54-.63 2.06-.23.3-.59.56-1.04.8.7.26 1.22.66 1.58 1.23zm9.18-5.74h-5.52V.58h5.52z" fill="#878a8b"/></svg>