<svg xmlns="http://www.w3.org/2000/svg" xmlns:xlink="http://www.w3.org/1999/xlink" width="44" height="28" viewBox="0 0 44 28"><defs><path id="a" d="M1174.3 2216.7a4.5 4.5 0 0 0-3.04-1.08c-1.31 0-2.33.38-3.06 1.12a5.38 5.38 0 0 0-1.37 3.04h8.84a4.25 4.25 0 0 0-1.37-3.09zm6.52 2.58c.14.89.2 2.2.18 3.9h-14.27c.06 1.97.74 3.34 2.03 4.12.78.5 1.72.76 2.83.76 1.17 0 2.11-.3 2.85-.9.41-.33.76-.77 1.06-1.36h5.24a6.49 6.49 0 0 1-1.92 3.56c-1.75 1.9-4.21 2.85-7.36 2.85-2.62 0-4.93-.8-6.92-2.41-1.98-1.6-3-4.23-3-7.84 0-3.42.9-6.03 2.7-7.84 1.8-1.82 4.14-2.72 7.02-2.72 1.7 0 3.25.3 4.62.92a7.84 7.84 0 0 1 3.37 2.9 9.75 9.75 0 0 1 1.57 4.06zm-27.15 4.45c0-1.42-.58-2.4-1.74-2.93a6.73 6.73 0 0 0-2.74-.46h-5.87v7.3h5.78c1.18 0 2.1-.17 2.77-.48 1.2-.6 1.8-1.75 1.8-3.43zm-10.35-7.92h5.78c1.19 0 2.15-.23 2.9-.68.74-.45 1.1-1.26 1.1-2.41 0-1.29-.5-2.13-1.47-2.54-.84-.28-1.92-.43-3.23-.43h-5.08zm15.05 4.3a7.25 7.25 0 0 1 1.06 4.01 8.01 8.01 0 0 1-3.14 6.53 7.56 7.56 0 0 1-3.1 1.37c-1.19.26-2.47.38-3.86.38H1137V2205h13.22c3.34.05 5.7 1.02 7.09 2.92a6.97 6.97 0 0 1 1.26 4.18c0 1.68-.43 3.02-1.27 4.04a6.5 6.5 0 0 1-2.08 1.56c1.4.5 2.44 1.3 3.15 2.42zm18.37-11.22h-11.03v-2.75h11.03z"/></defs><use xlink:href="#a" transform="translate(-1137 -2205)"/></svg>