<svg xmlns="http://www.w3.org/2000/svg" xmlns:xlink="http://www.w3.org/1999/xlink" width="36" height="36" viewBox="0 0 36 36"><defs><path id="a" d="M1060.88 2231.17a59.86 59.86 0 0 0-2.84-10.03c2.86-.48 5.81-.38 8.84.3a15.11 15.11 0 0 1-6 9.73zm-18.33-.41a29.04 29.04 0 0 1 6.2-5.77 24.21 24.21 0 0 1 6.44-3.17c1.29 3.33 2.38 7 3.04 10.9a15 15 0 0 1-15.68-1.96zm-5.65-12.4h.09c1.83 0 5.2-.12 9.15-.84 2.26-.41 4.4-.96 6.41-1.65a69.11 69.11 0 0 1 1.55 3.3c-2.81.9-5.19 2.2-7.07 3.5a31.82 31.82 0 0 0-6.56 6.06 15.03 15.03 0 0 1-3.57-10.36zm9.02-13.2c.89 1.15 3 4.02 5.26 8.11a48.27 48.27 0 0 1-13.88 2.2 15.15 15.15 0 0 1 8.62-10.3zm15.76 2.26a26.82 26.82 0 0 1-7.73 4.83 69.3 69.3 0 0 0-5.11-8.03 15.09 15.09 0 0 1 12.84 3.2zm2.03 2.06a15.02 15.02 0 0 1 3.36 9.04 25.39 25.39 0 0 0-10.12-.1 70.44 70.44 0 0 0-1.66-3.6c3.25-1.4 6.09-3.2 8.42-5.34zm-11.72-8.48a18 18 0 0 0-17.99 17.98 18 18 0 0 0 17.99 17.99 18 18 0 0 0 17.98-17.99 18 18 0 0 0-17.98-17.98z"/></defs><use xlink:href="#a" transform="translate(-1034 -2201)"/></svg>