<svg height="18" viewBox="0 0 18 18" width="18" xmlns="http://www.w3.org/2000/svg"><path d="M13.45 15.1c-.33-1.8-.84-3.48-1.42-5.02 1.43-.24 2.9-.2 4.42.15a7.56 7.56 0 0 1-3 4.87zm-9.17-.2c.52-.66 1.58-1.85 3.1-2.9a12.12 12.12 0 0 1 3.23-1.58c.64 1.66 1.19 3.5 1.51 5.46a7.5 7.5 0 0 1-7.84-.99zM1.45 8.69h.05c.91 0 2.6-.06 4.58-.42 1.13-.2 2.2-.49 3.2-.83.27.52.53 1.07.78 1.65-1.41.45-2.6 1.1-3.54 1.75a15.92 15.92 0 0 0-3.28 3.04 7.52 7.52 0 0 1-1.79-5.19zm4.52-6.6c.45.57 1.5 2 2.64 4.05a24.22 24.22 0 0 1-6.96 1.1 7.59 7.59 0 0 1 4.32-5.16zm7.87 1.12a13.4 13.4 0 0 1-3.86 2.42c-1-1.84-1.97-3.23-2.55-4.02a7.53 7.53 0 0 1 6.41 1.6zm1.02 1.03a7.54 7.54 0 0 1 1.69 4.54 12.68 12.68 0 0 0-5.06-.05c-.27-.63-.55-1.24-.84-1.81a14.9 14.9 0 0 0 4.21-2.68zM9 0a9.01 9.01 0 0 0 0 18A9.01 9.01 0 0 0 9 0z" fill="#878a8b"/></svg>