<svg xmlns="http://www.w3.org/2000/svg" xmlns:xlink="http://www.w3.org/1999/xlink" width="19" height="33" viewBox="0 0 19 33"><defs><path id="a" d="M757.8 2202h-4.42c-4.97 0-8.17 3.19-8.17 8.12v3.75h-4.45c-.38 0-.69.3-.69.67v5.42c0 .38.31.68.7.68h4.44v13.69c0 .37.3.67.7.67h5.79c.38 0 .7-.3.7-.67v-13.7h5.19c.38 0 .7-.3.7-.67v-5.42a.66.66 0 0 0-.21-.48.7.7 0 0 0-.5-.2h-5.19v-3.17c0-1.52.38-2.3 2.43-2.3h2.98c.38 0 .69-.3.69-.67v-5.04a.68.68 0 0 0-.7-.67z"/></defs><use xlink:href="#a" transform="translate(-740 -2202)"/></svg>