<svg height="18" viewBox="0 0 18 18" width="18" xmlns="http://www.w3.org/2000/svg"><path d="M18 4.97v8.06A4.97 4.97 0 0 1 13.03 18H4.97A4.97 4.97 0 0 1 0 13.03V4.97A4.97 4.97 0 0 1 4.97 0h8.06A4.97 4.97 0 0 1 18 4.97zm-1.6 8.05V4.97a3.37 3.37 0 0 0-3.38-3.37H4.96A3.37 3.37 0 0 0 1.6 4.97v8.05a3.37 3.37 0 0 0 3.36 3.37h8.06a3.37 3.37 0 0 0 3.37-3.37zM13.64 9a4.645 4.645 0 1 1-9.29-.01 4.645 4.645 0 0 1 9.29.01zm-1.6 0a3.045 3.045 0 1 0-6.09 0 3.05 3.05 0 0 0 6.1 0zm2.62-5.65a1.18 1.18 0 0 1 0 1.66 1.18 1.18 0 0 1-2-.83 1.18 1.18 0 0 1 1.17-1.17c.31 0 .61.12.83.34z" fill="#878a8b"/></svg>