<svg xmlns="http://www.w3.org/2000/svg" xmlns:xlink="http://www.w3.org/1999/xlink" width="36" height="36" viewBox="0 0 36 36"><defs><path id="a" d="M965.8 2210.88v16.04a9.9 9.9 0 0 1-9.88 9.88h-16.04a9.9 9.9 0 0 1-9.88-9.88v-16.04a9.9 9.9 0 0 1 9.88-9.88h16.04a9.9 9.9 0 0 1 9.88 9.88zm-3.18 16.03v-16.03c0-3.7-3-6.7-6.7-6.7h-16.04c-3.7 0-6.7 3-6.7 6.7v16.03c0 3.7 3 6.7 6.7 6.7h16.04c3.7 0 6.7-3 6.7-6.7zm-5.5-8a9.24 9.24 0 0 1-18.44 0 9.24 9.24 0 0 1 18.45 0zm-3.17 0a6.06 6.06 0 1 0-12.11 0 6.06 6.06 0 0 0 12.1 0zm5.21-11.25a2.34 2.34 0 0 1 0 3.3 2.35 2.35 0 0 1-3.98-1.65 2.34 2.34 0 0 1 2.33-2.33c.62 0 1.22.25 1.65.68z"/></defs><use xlink:href="#a" transform="translate(-930 -2201)"/></svg>