<svg xmlns="http://www.w3.org/2000/svg" xmlns:xlink="http://www.w3.org/1999/xlink" width="36" height="34" viewBox="0 0 36 34"><defs><path id="a" d="M826.46 2234.97h7.7v-22.9h-7.7zm3.9-33.92c-2.64 0-4.36 1.7-4.36 3.96 0 2.2 1.67 3.96 4.26 3.96h.05c2.68 0 4.35-1.76 4.35-3.96-.05-2.25-1.67-3.96-4.3-3.96zm22.7 10.5a7.66 7.66 0 0 0-6.94 3.77v.08h-.05l.05-.08v-3.24h-7.7c.1 2.15 0 22.9 0 22.9h7.7v-12.79c0-.69.05-1.37.25-1.86a4.2 4.2 0 0 1 3.96-2.78c2.78 0 3.9 2.1 3.9 5.18v12.25h7.7v-13.13c0-7.04-3.8-10.3-8.87-10.3z"/></defs><use xlink:href="#a" transform="translate(-826 -2201)"/></svg>