<svg width="60" height="60" viewBox="0 0 60 60" xmlns="http://www.w3.org/2000/svg"><title>d59</title><g fill="none" fill-rule="evenodd"><path fill-opacity=".2" fill="#00D563" fill-rule="nonzero" d="M13 14h22v22H13z"/><path stroke="#00D563" stroke-width="2" stroke-linecap="round" d="M13 14h22v22H13z"/><path d="M15 20a1 1 0 1 1 0-2 1 1 0 0 1 0 2M18 23a1 1 0 1 1 0-2 1 1 0 0 1 0 2M24 23a1 1 0 1 1 0-2 1 1 0 0 1 0 2M21 20a1 1 0 1 1 0-2 1 1 0 0 1 0 2M30 23a1 1 0 1 1 0-2 1 1 0 0 1 0 2M18 17a1 1 0 1 1 0-2 1 1 0 0 1 0 2M24 17a1 1 0 1 1 0-2 1 1 0 0 1 0 2M30 17a1 1 0 1 1 0-2 1 1 0 0 1 0 2M27 20a1 1 0 1 1 0-2 1 1 0 0 1 0 2M15 26a1 1 0 1 1 0-2 1 1 0 0 1 0 2M18 29a1 1 0 1 1 0-2 1 1 0 0 1 0 2M24 29a1 1 0 1 1 0-2 1 1 0 0 1 0 2M21 26a1 1 0 1 1 0-2 1 1 0 0 1 0 2M30 29a1 1 0 1 1 0-2 1 1 0 0 1 0 2M27 26a1 1 0 1 1 0-2 1 1 0 0 1 0 2M15 32a1 1 0 1 1 0-2 1 1 0 0 1 0 2M33 20a1 1 0 1 1 0-2 1 1 0 0 1 0 2M33 26a1 1 0 1 1 0-2 1 1 0 0 1 0 2M33 32a1 1 0 1 1 0-2 1 1 0 0 1 0 2M18 35a1 1 0 1 1 0-2 1 1 0 0 1 0 2M24 35a1 1 0 1 1 0-2 1 1 0 0 1 0 2M21 32a1 1 0 1 1 0-2 1 1 0 0 1 0 2M30 35a1 1 0 1 1 0-2 1 1 0 0 1 0 2M27 32a1 1 0 1 1 0-2 1 1 0 0 1 0 2" fill="#00D563" fill-rule="nonzero"/><path fill="#FFF" fill-rule="nonzero" d="M1 1h6v6H1z"/><path stroke="#00D563" stroke-width="2" stroke-linecap="round" d="M1 1h6v6H1z"/><path fill="#FFF" fill-rule="nonzero" d="M53 1h6v6h-6z"/><path stroke="#00D563" stroke-width="2" stroke-linecap="round" d="M53 1h6v6h-6z"/><path fill="#FFF" fill-rule="nonzero" d="M1 53h6v6H1z"/><path stroke="#00D563" stroke-width="2" stroke-linecap="round" d="M1 53h6v6H1z"/><path fill="#FFF" fill-rule="nonzero" d="M53 53h6v6h-6z"/><path stroke="#00D563" stroke-width="2" stroke-linecap="round" d="M53 53h6v6h-6z"/><path stroke="#00D563" stroke-width="2" stroke-linecap="round" d="M53 7V4H7v3H4v46h3v3h46v-3h3V7z"/><path fill="#FFF" fill-rule="nonzero" d="M35 25v11H24v11h22V25z"/><path stroke="#00D563" stroke-width="2" stroke-linecap="round" d="M35 25v11H24v11h22V25z"/></g></svg>