<svg xmlns="http://www.w3.org/2000/svg" viewBox="0 0 748.1 744.5"><style>.st0{display:none}.st1{display:inline}.st2,.st3{stroke:#eaeaea}.st2{stroke-width:5;stroke-miterlimit:10;fill:none}.st3{fill:#fff}.st3,.st4,.st5{stroke-width:5;stroke-miterlimit:10}.st4{stroke-dasharray:9.6;fill:#fff;stroke:#eaeaea}.st5{fill:#c9f4d9;stroke:#00d664;stroke-linecap:round;stroke-linejoin:round}.st6{fill:none}.st10,.st6,.st7,.st8,.st9{stroke:#00d664;stroke-width:5;stroke-miterlimit:10}.st7{stroke-linecap:round;stroke-linejoin:round;fill:none}.st10,.st8,.st9{fill:#fff}.st10,.st9{fill:#c9f4d9}.st10{fill:none;stroke:#eaeaea}.st10,.st11,.st12{display:inline}.st11{stroke-width:5;stroke-miterlimit:10;stroke-dasharray:9.6;fill:#fff;stroke:#eaeaea}.st12{fill:none;stroke:#00d664}.st12,.st13,.st14{stroke-width:5;stroke-miterlimit:10}.st13{display:inline;fill:#c9f4d9;stroke:#00d664}.st14{fill:none;stroke:#eaeaea;stroke-linecap:round}.st15{fill:#00d664}.st16{fill:#c9f4d9}.st17{fill:none;stroke:#00d664;stroke-width:5;stroke-dasharray:9.6706,9.6706}.st17,.st18,.st19,.st20{stroke-miterlimit:10}.st18{fill:#fff;stroke:#eaeaea;stroke-linecap:square;stroke-linejoin:bevel;stroke-width:5}.st19,.st20{stroke-width:4.8}.st19{fill:none;stroke:#eaeaea}.st20{stroke-linecap:square;stroke-linejoin:round}.st20,.st21{fill:#fff;stroke:#eaeaea}.st21,.st22,.st23,.st24{stroke-width:4.8;stroke-miterlimit:10}.st22{stroke-dasharray:9.6;fill:#fff;stroke:#eaeaea}.st23,.st24{fill:none;stroke:#00d664}.st24{fill:#c9f4d9}</style><switch><g><g id="Layer_1" class="st0"><g class="st1"><circle class="st2" cx="84.8" cy="490.8" r="18.4"/><path transform="rotate(79.927 158.798 460.382)" class="st2" d="M148.6 453.7h20.5V467h-20.5z"/><path class="st3" d="M170.8 447.8l-26.8 4.8"/><path transform="rotate(-.628 71.317 567.298) scale(.99996)" class="st2" d="M61.2 560.7h20.5V574H61.2z"/><path class="st3" d="M61.1 553.8l.3 27.2"/><path class="st2" d="M673.6 232.8H515.2V68"/><path class="st2" d="M525.1 77.1L515 67l-10.7 10.1M665.4 243.7l10-10.1-10-10.8M490.7 590l10.5 9.5 10.2-10.5M677.5 673l9.6-10.5-10.6-10.3M555.4 212.6v-66.4M578.4 212.6v-88.3M608.5 212.6V106.7M638.5 216.1V89.3M526.7 202.8l28.7-27.2 23 27.2 30.1-62.2 30-26.8M241.6 106H90.8v101c0 40.6 78 64.6 78 64.6s72.9-40.2 72.9-67.2-.1-98.4-.1-98.4z"/><circle class="st3" cx="183.3" cy="569.1" r="108.5"/><path class="st2" d="M184.3 563.8c-.9 0-1.8.2-2.6.5l-40.8-33.6s25.1 24.4 36.7 37.7c-.3.8-.5 1.7-.5 2.6 0 4 3.2 7.2 7.2 7.2s7.2-3.2 7.2-7.2-3.2-7.2-7.2-7.2z"/><circle class="st4" cx="373.2" cy="350.1" r="220.9"/><path class="st5" d="M445.4 351.3c28.9-.7 52.7.2 77.4 0 0 21.4-17.3 38.7-38.7 38.7-21.4-.1-38.7-17.4-38.7-38.7z"/><path class="st6" d="M379.4 232.2v211"/><path class="st7" d="M445.6 351l38.5-118.2L522.5 351"/><path class="st5" d="M236.2 351.3c28.9-.7 52.7.2 77.4 0 0 21.4-17.3 38.7-38.7 38.7-21.4-.1-38.7-17.4-38.7-38.7z"/><path class="st7" d="M236.4 351l38.5-118.2L313.3 351"/><path class="st6" d="M484.1 232.8s-46.7 24.1-105.5 0M380.4 232.8s-46.7 24.1-105.5 0"/><circle class="st3" cx="554.8" cy="177.8" r="5.1"/><circle class="st3" cx="578.4" cy="201.2" r="5.1"/><circle class="st3" cx="608.5" cy="141.1" r="5.1"/><circle class="st3" cx="638.5" cy="114.3" r="5.1"/><path class="st2" d="M500.8 597.1c0-39.4 32-71.4 71.4-71.4 39.4 0 71.4 32 71.4 71.4 0 39.4-32 71.4-71.4 71.4H443.1M621.5 662.6h65.6"/><path class="st8" d="M311.6 440.5h135.6v23.2H311.6z"/><path class="st9" d="M294.6 457.9h169.6v29H294.6z"/><path class="st2" d="M150.2 214.2c-10.5-11.3-20.8-22.3-31.3-33.5 4.6-4.3 9-8.4 13.6-12.7 6.2 6.6 12.2 13.1 18.4 19.7 16.6-15.4 33-30.7 49.7-46.3 4.3 4.6 8.5 9.1 12.9 13.8-21.1 19.7-42.1 39.2-63.3 59z" id="_x35_TUvwQ.tif"/></g></g><g id="Layer_2" class="st0"><path class="st10" d="M17.3 535.1h253v143.2h-253z"/><path class="st10" d="M93 562.2l-43.2 43.2L96 651.5M183 651.5l43.2-43.1-46.2-46.2M116.4 656.9l44.2-100.7M531 361.4h158.4v196.2H531zM290 259.9H82.6c-9.9 0-18-8.1-18-18V102.6c0-9.9 8.1-18 18-18H290c9.9 0 18 8.1 18 18v139.3c0 9.9-8.1 18-18 18z"/><path class="st10" d="M81.8 101.9h208.9v140.7H81.8zM339.5 259.9v90.5H27.8c-14.6 0-16-11.7-9.1-20.6l54.2-69.9M466.2 103.4s.2-37.3 30-37.3c9.6 0 25.2 6.7 25.2 32.6 0 34.8-58.3 49.6-58.3 94.5 19.9 1.3 58.3 0 58.3 0v-22.9M689.4 386.1H526.3"/><circle class="st11" cx="359.1" cy="370.3" r="220.9"/><path class="st12" d="M497.4 411.5l-56.8-167.2H271l-60.8 167.2"/><path class="st13" d="M194.2 455.5h318.4l-15.2-36.8H210.2z"/><circle class="st13" cx="279" cy="355.5" r="22.4"/><circle class="st13" cx="327.4" cy="355.5" r="22.4"/><circle class="st13" cx="375.8" cy="355.5" r="22.4"/><circle class="st13" cx="423.8" cy="355.5" r="22.4"/><circle class="st13" cx="503" cy="333.1" r="22.4"/><path class="st12" d="M493 313.1l-52.4-68.8"/><path class="st10" d="M638.6 193.9c-12.9 0-23.5-10.6-23.5-23.5V89.6c0-12.9 10.6-23.5 23.5-23.5s23.5 10.6 23.5 23.5v80.8c0 12.9-10.6 23.5-23.5 23.5zM711.6 123.6c-12.9 0-23.5-10.6-23.5-23.5V89.6c0-12.9 10.6-23.5 23.5-23.5s23.5 10.6 23.5 23.5v10.5c-.1 12.9-10.6 23.5-23.5 23.5z"/><path class="st10" d="M711.6 193.8c-12.9 0-23.5-10.6-23.5-23.5v-23.5c0-12.9 10.6-23.5 23.5-23.5s23.5 10.6 23.5 23.5v23.5c-.1 13-10.6 23.5-23.5 23.5zM570.2 193.9c-12.9 0-23.5-10.6-23.5-23.5V89.6c0-12.9 10.6-23.5 23.5-23.5s23.5 10.6 23.5 23.5v80.8c0 12.9-10.6 23.5-23.5 23.5z"/></g><g id="Layer_3" class="st0"><g class="st1"><path class="st2" d="M663.7 517.6c-14.9 0-27.1 12.1-27.1 27.1s12.1 27.1 27.1 27.1c14.9 0 27.1-12.1 27.1-27.1s-12.2-27.1-27.1-27.1zm0 43c-8.8 0-15.9-7.1-15.9-15.9s7.1-15.9 15.9-15.9 15.9 7.1 15.9 15.9-7.1 15.9-15.9 15.9z"/><path class="st3" d="M516.4 508.2h131.2s17.6 89.6-65.3 89.6c-78.7 0-65.9-89.6-65.9-89.6z"/><path class="st14" d="M594.2 491.6s-24.4-11.6-23.6-34.2c.8-22.6 17.3-29.8 12.9-63.4 18 25.6 9.4 37.7 2.7 63.4-.1 23.9 8 34.2 8 34.2z"/><path class="st2" d="M160.1 619.2h31.1v31.1h-31.1z"/><path transform="rotate(45.001 121.543 597.851)" class="st2" d="M106 582.3h31.1v31.1H106z"/><path transform="rotate(24.168 108.01 665.38)" class="st2" d="M92.4 649.8h31.1v31.1H92.4z"/><path class="st2" d="M523.2 334c-26.1 0-47.5-21.4-47.5-47.5v-50.7c0-26.1 21.4-47.5 47.5-47.5s47.5 21.4 47.5 47.5v50.7c.1 26.1-21.3 47.5-47.5 47.5z"/><path class="st2" d="M523.2 234.6c-4.2 0-7.6-3.4-7.6-7.6v-13.6c0-4.2 3.4-7.6 7.6-7.6 4.2 0 7.6 3.4 7.6 7.6V227c0 4.2-3.5 7.6-7.6 7.6zM524.8 188.2v-28.3c0-8.4-3-10.3-13.3-10.3h-73.9s-12.2-.5-12.2-10.9c0-8.8 9.6-9.9 17.6-9.9s31.3-.1 40.7-.1 11.3-4.8 11.3-11.8V87.2M187.8 332.2H69.4c-6.6 0-12-5.4-12-12V125.8c0-6.6 5.4-12 12-12h118.4c6.6 0 12 5.4 12 12v194.4c0 6.6-5.4 12-12 12z"/><path class="st2" d="M73 128.9h111.1v168.9H73z"/><circle class="st2" cx="126.8" cy="314.9" r="9.6"/><circle class="st4" cx="336.7" cy="431.4" r="220.9"/><path transform="rotate(33.695 425.414 334.016)" class="st6" d="M420.5 324.1h9.9v19.8h-9.9z"/><path transform="rotate(-56.303 433.54 321.818)" class="st6" d="M428.6 309h9.9v25.6h-9.9z"/><circle class="st8" cx="343.1" cy="450.8" r="134.2"/><circle class="st9" cx="343.1" cy="450.8" r="113.5"/><circle class="st6" cx="344.3" cy="283.2" r="33.8"/><path class="st6" d="M335.6 297.6h20.2M345.7 317v-19.4"/><circle class="st15" cx="342.2" cy="452.4" r="9.6"/><path class="st6" d="M342 383.4v67.4"/><path class="st2" d="M494.4 87.3c-5.7 0-10.3-4.3-10.3-9.6v-19h20.6v19c0 5.3-4.6 9.6-10.3 9.6z"/></g></g><g id="Layer_4" class="st0"><g class="st1"><path class="st3" d="M134 167.8c0-23.6 2-24.8 24.8-24.8 24.7 0 24.8 2.8 24.8 24.8h22.9v-19c0-13.6-11.2-24.8-24.8-24.8h-45.8c-13.6 0-24.8 11.2-24.8 24.8v19H134z"/><path class="st2" d="M686.4 630.3h-152l-44.1-72h196.1z"/><path class="st3" d="M534.4 342.8h211.2v287.5H534.4z"/><path class="st2" d="M37.1 501.8h253.7v92.5H37.1z"/><path class="st3" d="M21.7 165.6h212.4v54H21.7z"/><path class="st3" d="M45.7 183.6h154.8v25.2H45.7z"/><path class="st2" d="M120.6 573.8h-24v-49h24M113.3 549.3H96.6M233.6 573.8H206v-49h44M166.3 573.8v-49h16.5c3.6 0 5.8 3.7 5.8 8.9 0 2.5-.2 4-.2 10.4s-4 7.6-7.2 7.6h-14.4M250 573.8v-49h13.7M226.4 549.3H206"/><path class="st3" d="M2.5 198h198v156.2H2.5z"/><circle class="st4" cx="359.2" cy="335.2" r="220.9"/><path transform="rotate(-134.999 490.324 273.26)" class="st9" d="M429.5 253h121.6v40.5H429.5z"/><path class="st8" d="M439.8 251.4s-11.7 9.9-23.7 21.9c-29.3-29.6-49.4-18.7-59.4-10.6-2.1 1.7-38.5 33.4-60.1 54.6-.5.4-.9.8-1.4 1.2l-10.9 10.9-3.3 3.3-29.4 29.3c-5.6 5.6-5.6 14.8 0 20.4l.6.6c4.8 4.8 12.4 5.5 17.9 1.9l-5.7 5.7c-5.6 5.6-5.6 14.8 0 20.4l.6.6c5.6 5.6 14.8 5.6 20.4 0l2.7-2.3c-5.6 5.6-5.6 14.8 0 20.4l.6.6c5.6 5.6 14.8 5.6 20.4 0l8.2-8.2c-2 5.2-.9 11.2 3.2 15.4l.6.6c5.6 5.6 14.8 5.6 20.4 0l15.3-15.3 9.9 11.7 69.8-56.6s63.7-66.1 64.9-64.9l-61.6-61.6z"/><path class="st9" d="M368.8 407.5l27.6 27.6c5.6 5.6 5.6 14.8 0 20.4l-.6.6c-5.6 5.6-14.8 5.6-20.4 0l-27.6-27.6c-5.6-5.6-5.6-14.8 0-20.4l.6-.6c5.7-5.6 14.8-5.6 20.4 0z"/><path class="st9" d="M380.9 378.2l43 43c5.8 5.8 5.8 15.2 0 20.9-5.8 5.8-15.2 5.8-20.9 0l-43-43c-5.8-5.8-5.8-15.2 0-20.9 5.7-5.8 15.1-5.8 20.9 0zM401.2 356.3l41.3 41.3c5.8 5.8 5.8 15.2 0 20.9-5.8 5.8-15.2 5.8-20.9 0l-41.3-41.3c-5.8-5.8-5.8-15.2 0-20.9 5.7-5.8 15.2-5.8 20.9 0zM434.3 347.3L457 370c5.8 5.8 5.8 15.2 0 20.9-5.8 5.8-15.2 5.8-20.9 0l-22.7-22.7c-5.8-5.8-5.8-15.2 0-20.9 5.8-5.7 15.2-5.7 20.9 0zM226.8 305.9l40.4 40.4 58.8-58 34.4 34.4c14.4 14.4 33.2 5.2 38-1.2 4.8-6.4-34.4-52.8-48.8-65.6-14.4-12.8-33.6 8.8-33.6 8.8l-24.4-24.4-64.8 65.6z"/><path class="st6" d="M306.5 348.5l-36.7 36.7M322.3 374.6l-36.8 36.7M337.4 400.6l-24.6 25.7"/><path transform="rotate(-45.001 244.812 260.1)" class="st8" d="M184 239.8h121.6v40.5H184z"/><path class="st2" d="M580.2 392h117.4M580.2 427h117.4M580.2 462h117.4M580.2 497.1h117.4M580.2 532.1h66.5M580.2 567.1h66.5"/><path transform="rotate(30 667.432 589.896)" class="st2" d="M662.4 574.9h9.9v30h-9.9z"/><path transform="rotate(-33.561 695.819 589.975)" class="st2" d="M690.8 574.9h9.9v30h-9.9z"/><circle class="st3" cx="681.9" cy="564.7" r="17.6"/><path class="st2" d="M82.6 537.8s1.6-14.7-11-14.7c-7.6 0-12.6 5.5-12.6 12 0 10.8 7.2 12.1 11.6 14.2 4.9 2.4 13.6 3.8 13.6 11.8s-3.6 14.4-12.6 14.4c-7.2 0-12.6-4.3-12.6-15.6M153 564c0 7-4.9 12.6-11 12.6h-2.1c-6 0-11-5.7-11-12.6v-28.2c0-7 4.9-12.6 11-12.6h2.1c6 0 11 5.7 11 12.6M181.3 551.8l7.3 22"/></g></g><g id="Layer_5" class="st0"><g class="st1"><path class="st2" d="M142.4 481.3c-8.8 0-16-7.2-16-16v-51.4c0-8.8 7.2-16 16-16s16 7.2 16 16v51.4c0 8.8-7.2 16-16 16zM65.6 388.2c-8.8 0-16-7.2-16-16v-51.4c0-8.8 7.2-16 16-16s16 7.2 16 16v51.4c0 8.8-7.2 16-16 16zM192 481.3c-8.8 0-16-7.2-16-16v-51.4c0-8.8 7.2-16 16-16s16 7.2 16 16v51.4c0 8.8-7.2 16-16 16z"/><path class="st3" d="M169.6 208.9h-8c-37.8 0-68.8 31-68.8 68.8h145.6c0-37.8-30.9-68.8-68.8-68.8zM92.8 297.1v68.8c0 37.8 31 68.8 68.8 68.8h8c37.8 0 68.8-31 68.8-68.8v-68.8H92.8z"/><circle class="st2" cx="141.6" cy="242.3" r="5.7"/><circle class="st2" cx="186.4" cy="242.3" r="5.7"/><path class="st2" d="M131.8 215.8L101 185M206.4 218.2l32.2-33M504.9 529.8h193.6v109.6H504.9z"/><path class="st2" d="M564.3 549.8l-33 33 35.3 35.4M644.5 617.4l33-33.1-35.3-35.3M586.4 625.3l33.8-77.1M345.1 544l-50.7-14.3L192 625.1s5.2 21.7 16 56M368 695.5L345.1 544 208 681.1z"/><path class="st2" d="M245.5 576.9l2.1 62.5 118 53.7-57.7-111.9zM672 159.5s-16-27.2-43.2-27.2c-27.2 0-32.1 7.1-46.5 7.1s-27.1-7.1-44.7-7.1-43.9 27.2-43.9 27.2 68.1 163.2 108 163.2c39.9 0 84-17.9 84-90.8-28.1-3.6-52.1-38.8-13.7-72.4zM585.6 111.5s52.8-12.8 43.2-62.4c-23.8 0-44.9 30.4-43.2 62.4zM362 56.9c-10.5 8.6-22.5 24.1-21.3 43.5.5 8.4 5.5 15.6 13.2 23.2 8.2 8 16.7 16.3 16.7 26.6 0 16.2-3.9 29-8.5 38.5 21.1-10 36.1-35.8 36.1-65.9-.1-30.1-15.1-55.9-36.2-65.9z"/><path class="st2" d="M343.6 193.2c5.5-8.1 6.5-16.8 6.5-37.2 0-6.1-.4-18.2-7.2-24.9-8.5-8.3-18.2-17.8-18.9-30.1-1.3-21 30-48.5 18.6-48.5S287 84 287 122.9s24.9 70.4 55.6 70.4c.3 0 .6 0 1-.1z"/><circle class="st4" cx="417.1" cy="360.3" r="220.9"/><path class="st16" d="M404.8 365.3h36.3v116h-36.3z"/><g><path class="st6" d="M339.3 365.3h162.5v116H339.3zM288.8 412.6l50.5-47.3M550.8 411.1l-49-45.8M404.8 365.3v4.8"/><path class="st17" d="M404.8 379.8v91.8"/><path class="st6" d="M404.8 476.5v4.8M441.1 365.3v4.8"/><path class="st17" d="M441.1 379.8v91.8"/><path class="st6" d="M441.1 476.5v4.8"/><path transform="rotate(45.001 300.866 276.335)" class="st6" d="M284.1 259.6h33.5v33.5h-33.5z"/><path class="st9" d="M453 227.5h50.2v50.2H453zM379.9 263.2L365 289l-14.9 25.8h59.5L394.7 289z"/><circle class="st9" cx="376.8" cy="215.8" r="16.2"/></g></g></g><g id="Layer_6" class="st0"><g class="st1"><path class="st3" d="M225.5 221.8v-19.4l-19.6-2.6c-.7-4.3-1.9-8.5-3.3-12.5l15.7-12.1-9.7-16.8-18.3 7.5c-2.8-3.3-5.8-6.4-9.1-9.1l7.5-18.3-16.8-9.7-12.1 15.7c-4-1.5-8.2-2.6-12.5-3.3l-2.6-19.6h-19.4l-2.6 19.6c-4.3.7-8.5 1.9-12.5 3.3l-12.1-15.7-16.8 9.7 7.5 18.3c-3.3 2.8-6.4 5.8-9.1 9.1l-18.3-7.5-9.7 16.8 15.7 12.1c-1.5 4-2.6 8.2-3.3 12.5l-19.6 2.6v19.4l19.6 2.6c.7 4.3 1.9 8.5 3.3 12.5L51.8 249l9.7 16.8 18.3-7.5c2.8 3.3 5.8 6.4 9.1 9.1l-7.5 18.3 16.8 9.7 12.1-15.7c4 1.5 8.2 2.6 12.5 3.3l2.6 19.6h19.4l2.6-19.6c4.3-.7 8.5-1.9 12.5-3.3l12.1 15.7 16.8-9.7-7.5-18.3c3.3-2.8 6.4-5.8 9.1-9.1l18.3 7.5 9.7-16.8-15.7-12.1c1.5-4 2.6-8.2 3.3-12.5l19.5-2.6z"/><path class="st3" d="M160.6 241.9c9.7-9.7 12.5-23.7 8.5-35.9l-27.8 27.8-22.3-22.3 27.8-27.8c-12.2-4-26.2-1.2-35.9 8.5a34.915 34.915 0 0 0-7.7 38l-73.7 73.7.6 18.9 18.9.6 73.7-73.7c12.6 5 27.7 2.5 37.9-7.8z"/><circle class="st3" cx="545.9" cy="541.4" r="95.2"/><circle class="st3" cx="545.9" cy="541.4" r="61"/><path class="st3" d="M596.2 520.1l41.4-21s24.4 40.6 0 84.5c-16.3-3.7-41.4-18.3-41.4-18.3s11-19.9 0-45.2zM567.2 591.7l21 41.4s-40.6 24.4-84.5 0c3.7-16.3 18.3-41.4 18.3-41.4s19.8 11 45.2 0zM495.6 562.7l-41.4 21s-24.4-40.6 0-84.5c16.3 3.7 41.4 18.3 41.4 18.3s-11.1 19.8 0 45.2zM524.6 491l-21-41.4s40.6-24.4 84.5 0c-3.7 16.3-18.3 41.4-18.3 41.4s-19.9-11-45.2 0zM569.8 234.4c-29 0-52.6-23.7-52.6-52.6v-28.4c0-29 23.7-52.6 52.6-52.6 29 0 52.6 23.7 52.6 52.6v28.4c0 28.9-23.7 52.6-52.6 52.6z"/><path class="st3" d="M537.4 181.8v-28.4c0-17.9 14.5-32.3 32.3-32.3 17.9 0 32.3 14.5 32.3 32.3v28.4c0 17.9-14.5 32.3-32.3 32.3-17.8 0-32.3-14.5-32.3-32.3z"/><path class="st3" d="M620 274.9H519.5c-6.6 0-12-5.4-12-12v-82.8c0-6.6 5.4-12 12-12H620c6.6 0 12 5.4 12 12v82.8c0 6.6-5.4 12-12 12z"/><circle class="st4" cx="356.7" cy="365.2" r="220.9"/><path class="st9" d="M410.5 261.2c-37.9 0-68.5 30.7-68.5 68.5 0 5.8.7 11.4 2.1 16.7L239.9 450.6v17.5l16.3 16.3h33.5l17.9-17.9v-16.3h16.8v-19.7H342v-16.4h36.5l17.4-17.4c4.7 1 9.6 1.6 14.7 1.6 37.9 0 68.5-30.7 68.5-68.5s-30.7-68.6-68.6-68.6z"/><path class="st8" d="M342 363.3v18.2l-85.9 85.9v-17.7z"/><circle class="st8" cx="427.5" cy="313.1" r="17.6"/><path class="st3" d="M579.3 210.4c0-5.3-4.3-9.6-9.6-9.6s-9.6 4.3-9.6 9.6c0 3.5 1.9 6.6 4.8 8.3l-2.8 20.9c0 1.4 1.1 2.5 2.5 2.5h10.2c1.4 0 2.5-1.1 2.5-2.5l-2.8-20.9c2.9-1.6 4.8-4.7 4.8-8.3zM619.6 373.6c-3.9 0-7.1-3.2-7.1-7.1v-20.8c0-3.9 3.2-7.1 7.1-7.1 3.9 0 7.1 3.2 7.1 7.1v20.8c0 3.9-3.2 7.1-7.1 7.1zM626.7 345.7l-13.5 24M679.8 372.8c-3.9 0-7.1-3.2-7.1-7.1v-20.8c0-3.9 3.2-7.1 7.1-7.1 3.9 0 7.1 3.2 7.1 7.1v20.8c.1 3.9-3.1 7.1-7.1 7.1zM687 344.9l-13.5 24"/><path class="st18" d="M640.1 351l10.6-13.2v35M642.4 372.8h17.2M699.1 351l10.6-13.2v35M701.4 372.8h17.3"/></g></g><g id="Layer_7" class="st0"><g class="st1"><path class="st2" d="M516.1 265.1c0-20.1 13.4-36.6 29.7-36.6H643c16.4 0 29.7 16.5 29.7 36.6M643.1 170.7c-4.5 0-8.2-3.7-8.2-8.2V146c0-4.5 3.7-8.2 8.2-8.2 4.5 0 8.2 3.7 8.2 8.2v16.5c0 4.5-3.7 8.2-8.2 8.2zM547 170.7c-4.5 0-8.2-3.7-8.2-8.2V146c0-4.5 3.7-8.2 8.2-8.2 4.5 0 8.2 3.7 8.2 8.2v16.5c0 4.5-3.7 8.2-8.2 8.2z"/><path class="st2" d="M548.1 138.7s-6-30.2 10.3-37.3c0-12.4 8.6-26.7 34.7-24 26.1 2.7 45-9.8 45-9.8s6.9 11.6 0 22.2c5.1 10.7 11.1 28.4 0 49.8"/><path class="st3" d="M579.5 202.3h27.2v39.5h-27.2z"/><path class="st3" d="M596 217.4h-1.6c-24.2 0-44-19.8-44-44v-27.6c0-12.9 5.7-24.6 14.6-32.7 7.8-7 8.8 5.3 30.7 5.3s26.7-10 34.8.2c6 7.5 9.5 17 9.5 27.3v27.6c0 24.1-19.8 43.9-44 43.9z"/><path class="st2" d="M566.5 580.5s89.8-36.9 94.4-150.6c-14.4-1.5-22.7.1-22.7.1l28-51.4 40.2 49.6-27.3-1.1s30.4 115.9-67.9 189.7M192.1 196.4s-84.2 48.4-73.8 161.7c14.5-.4 22.5-3.1 22.5-3.1l-21 54.7-46.4-43.9 27.2-2.5s-45.3-110.9 42.4-197"/><circle class="st4" cx="387.5" cy="384.9" r="220.9"/><g><path class="st6" d="M488.4 400.7H382.3c-28.4 0-51.6-23.2-51.6-51.6v-20.9c0-28.4 23.2-51.6 51.6-51.6h106.2c28.4 0 51.6 23.2 51.6 51.6v20.9c0 15.4-12.5 88.4-63.8 87.5 17.9-9 25.1-35.9 12.1-35.9z"/><circle class="st15" cx="399.8" cy="337.8" r="6.4"/><circle class="st15" cx="437.5" cy="337.8" r="6.4"/><circle class="st15" cx="475.2" cy="337.8" r="6.4"/><path class="st9" d="M289.1 483.7h106.2c28.4 0 51.6-23.2 51.6-51.6v-20.9c0-28.4-23.2-51.6-51.6-51.6H289.1c-28.4 0-51.6 23.2-51.6 51.6v20.9c0 15.4 12.5 88.4 63.8 87.5-17.9-9-25.2-35.9-12.2-35.9z"/><circle class="st15" cx="377.7" cy="420.7" r="6.4"/><circle class="st15" cx="340" cy="420.7" r="6.4"/><circle class="st15" cx="302.3" cy="420.7" r="6.4"/></g><g><path class="st2" d="M41.7 677.1c0-20.1 13.4-36.6 29.7-36.6h97.2c16.4 0 29.7 16.5 29.7 36.6M168.7 582.6c-4.5 0-8.2-3.7-8.2-8.2v-16.5c0-4.5 3.7-8.2 8.2-8.2 4.5 0 8.2 3.7 8.2 8.2v16.5c0 4.5-3.7 8.2-8.2 8.2zM72.6 582.6c-4.5 0-8.2-3.7-8.2-8.2v-16.5c0-4.5 3.7-8.2 8.2-8.2 4.5 0 8.2 3.7 8.2 8.2v16.5c0 4.5-3.7 8.2-8.2 8.2z"/><path class="st2" d="M73.7 550.6s-6-30.2 10.3-37.3c0-12.4 8.6-26.7 34.7-24s45-9.8 45-9.8 6.9 11.6 0 22.2c5.1 10.7 11.1 28.4 0 49.8"/><path class="st3" d="M105.2 614.3h27.2v39.5h-27.2z"/><path class="st3" d="M121.6 629.3H120c-24.2 0-44-19.8-44-44v-27.6c0-12.9 5.7-24.6 14.6-32.7 7.8-7 8.8 5.3 30.7 5.3s26.7-10 34.8.2c6 7.5 9.5 17 9.5 27.3v27.6c0 24.1-19.8 43.9-44 43.9z"/></g></g></g><g id="Layer_8"><path class="st19" d="M93.6 497.2h182.5v182.5H93.6z"/><circle class="st19" cx="501" cy="507.8" r="59.6"/><circle class="st19" cx="501" cy="507.8" r="26.1"/><path class="st20" d="M517.1 528.1l16.3 161.1 44.8-28.1 42 60.8 30.3-18.8-44.7-63.5 47.7-28.9z"/><path class="st19" d="M451.8 736l-29.3-19.7-27.9 21.8 9.7-34-29.3-19.7 35.3-1.3 9.7-34 12.2 33.2 35.3-1.3-27.9 21.8zM640.5 263.4l55.8 76.5-38.1-7.7-8.8 38.5-43.5-72.9M505 269.2L473.3 358l33.7-17.8 18.9 34.6 21.1-82"/><path class="st21" d="M667.1 231.6c0-8.9-5.6-16.6-13.4-19.6 10-5.9 13.4-18.7 7.6-28.8-4.5-7.7-13.1-11.6-21.4-10.3 5.7-10.1 2.3-22.9-7.8-28.7-7.7-4.5-17.1-3.5-23.7 1.8-.1-11.6-9.5-21-21.1-21-8.9 0-16.6 5.6-19.6 13.4-5.9-10-18.7-13.4-28.8-7.6-7.7 4.5-11.6 13.1-10.3 21.4-10.1-5.7-22.9-2.3-28.7 7.8-4.5 7.7-3.5 17.1 1.8 23.7-11.6.1-21 9.5-21 21.1 0 8.9 5.6 16.6 13.4 19.6-10 5.9-13.4 18.7-7.6 28.8 4.5 7.7 13.1 11.6 21.4 10.3-5.7 10.1-2.3 22.9 7.8 28.7 7.7 4.5 17.1 3.5 23.7-1.8.1 11.6 9.5 21 21.1 21 8.9 0 16.6-5.6 19.6-13.4 5.9 10 18.7 13.4 28.8 7.6 7.7-4.5 11.6-13.1 10.3-21.4 10.1 5.7 22.9 2.3 28.7-7.8 4.5-7.7 3.5-17.1-1.8-23.7 11.6-.1 21-9.5 21-21.1z"/><path class="st19" d="M596.4 249.5l-21.6-14.6-20.5 16.1 7.1-25.1-21.6-14.5 26-1 7.2-25.1 8.9 24.5 26.1-.9-20.5 16.1zM457.4 9.5l-10.8 27.3 22.6 18.8-29.3-1.9L429.1 81l-7.3-28.4-29.3-1.9L417.3 35 410 6.6l22.6 18.7zM184.8 185.3s-39.6-67.6-45.2-82-26.6-4.4-22.2 11.1 6.7 63.3 6.7 63.3"/><path class="st19" d="M135.2 177.7H79c-15.5 0-27.2 3.9-27.2 15s6.1 19.4 15 19.4M66.8 212.1s-13.3 1.1-13.3 13.3 7.8 19.8 20 19.8"/><path class="st19" d="M75.1 244.8s-15 2.2-15 14.4 10.5 18.1 22.8 18.1"/><path class="st19" d="M85.1 276.8s-13.3 1.1-13.3 13.3c0 12.2 6.7 19.2 18.9 19.2h16.8"/><circle class="st19" cx="573.9" cy="218.2" r="52"/><path class="st19" d="M170.3 632.7c-14.2-15.3-28.3-30.3-42.4-45.5 6.2-5.8 12.2-11.4 18.5-17.2 8.4 9 16.6 17.8 25 26.7 22.5-21 44.8-41.7 67.4-62.8 5.8 6.2 11.5 12.3 17.5 18.7-28.7 26.7-57.2 53.2-86 80.1z" id="_x35_TUvwQ.tif_1_"/><circle class="st22" cx="327.2" cy="351.9" r="220.9"/><path class="st23" d="M232.5 207.3h216.4v268.9H232.5z"/><path class="st24" d="M356.6 193.1c0-8.8-7.1-15.9-15.8-15.9-8.8 0-15.8 7.1-15.8 15.8h-32.8v31.7h97.3V193h-32.9zM303.2 280.6v17.5h-35v-35h20"/><path class="st23" d="M276.1 274.4l9.6 14 17.7-25.3"/><path class="st24" d="M303.2 344.1v17.5h-35v-35h20"/><path class="st23" d="M276.1 338l9.6 13.9 17.7-25.3"/><path class="st24" d="M303.2 407.7v17.5h-35v-35h20"/><path class="st23" d="M276.1 401.5l9.6 14 17.7-25.3M329.4 263.1H403M329.4 280.6h91.2M329.4 298.1h36.8M329.4 326.6H403M329.4 344.1h43.2M329.4 361.6h91.2M329.4 390.2h84M329.4 407.7H375M329.4 425.2h84"/></g></g></switch></svg>