<svg xmlns="http://www.w3.org/2000/svg" xmlns:xlink="http://www.w3.org/1999/xlink" width="108" height="58" viewBox="0 0 108 58"><defs><path id="a" d="M932 5628a28 28 0 1 1 56 0 28 28 0 0 1-56 0z"/><path id="b" d="M965.29 5627.03l-4.72-4.72 1.32-1.31 7.08 7.09-6.96 6.96-1.31-1.31 4.71-4.71H950v-2z"/><path id="c" d="M906 5627a4 4 0 1 1 8 0 4 4 0 0 1-8 0z"/><path id="d" d="M1006 5627a4 4 0 1 1 8 0 4 4 0 0 1-8 0z"/></defs><g opacity=".2" fill="#fff" transform="translate(-906 -5599)"><use xlink:href="#a"/><use fill-opacity="0" stroke="#101517" stroke-miterlimit="50" xlink:href="#a"/></g><use fill="#101517" xlink:href="#b" opacity=".9" transform="translate(-906 -5599)"/><use fill="#101517" xlink:href="#c" transform="translate(-906 -5599)"/><use fill="#101517" xlink:href="#d" transform="translate(-906 -5599)"/></svg>